. 
  
http://www.torrentday.com/        :     The Hottest Private Tracker On The Net!!!
 
http://www.torrentday.com          :     Once & For all ;)


               www . TorrentDay . Com 

(((((((((((((= Enjoy No RAR releases =))))))))))))))))))))


...................................NFO:....................................

.                                             
                               
                                 
                                      
                                      
                                       
    CoaX!<CPH>                         
                               
                         
                            
          
    Team FiCO <Final Coalition> 2k8 Presents:    
    

Roscoes.House.Of.Chicken.N.Waffles.2004.DVDRip.XviD-FiCO 
http://www.imdb.com/title/tt0426194/
Subtitles: None
Date: 2011.01

Director: Kennedy Goldsby
Genre: Comedy  
Plot: When New York cops chase numbers-running Clyde out of town, the 
woebegone crook heads to Los Angeles to help out a buddy, Roscoe, who's 
in too deep with the mafia. After Clyde and Roscoe fail to clear Roscoe's 
name, they decide to raise the necessary cash by reviving a failing 
restaurant. Their plan: concoct the recipe for the most delicious chicken
and waffles anyone's ever tasted. Stars Glenn Plummer, A.J. Johnson and 
Clifton Powell.

Cast
Credited cast:
Glenn Plummer 	Glenn Plummer 	... 	
Clyde Coltrane
Anthony Johnson 	Anthony Johnson 	... 	
Roscoe
Clifton Powell 	Clifton Powell 	... 	
Mo Fro
Crystal Dawne 	Crystal Dawne 	... 	
Girl at the pool
Rest of cast listed alphabetically:
Kristian Bernard 	Kristian Bernard 	... 	
Eye Balls
James Black 	James Black 	... 	
Tooky
Monique Desiree 	Monique Desiree 	... 	
Pam
Catrina Gasgon 	Catrina Gasgon 	... 	
Rapper Fan
Somalia Goldsby 	Somalia Goldsby 	... 	
Flower Girl
Cuba Gooding 	Cuba Gooding 	... 	
Fast Black
Jack Guzman 	Jack Guzman 	... 	
Huey
A.J. Johnson 	A.J. Johnson 	... 	
Percy
Kristian Bernard Kelly 	Kristian Bernard Kelly 	... 	
Eye Balls
Jay King 	Jay King 	... 	
A&R Man
Kitra 	Kitra 	... 	
Moms
Full cast and crew  

Stats:
General
Format                           : AVI
Format/Info                      : Audio Video Interleave
File size                        : 697 MiB
Duration                         : 1h 29mn
Overall bit rate                 : 1 092 Kbps
Writing application              : VirtualDubMod 1.5.10.2 (build 2542/release)
Writing library                  : VirtualDubMod build 2542/release

Video
ID                               : 0
Format                           : MPEG-4 Visual
Format profile                   : Advanced Simple@L5
Format settings, BVOP            : Yes
Format settings, QPel            : No
Format settings, GMC             : No warppoints
Format settings, Matrix          : Default (H.263)
Codec ID                         : XVID
Codec ID/Hint                    : XviD
Duration                         : 1h 29mn
Bit rate                         : 952 Kbps
Width                            : 544 pixels
Height                           : 400 pixels
Display aspect ratio             : 4:3
Frame rate                       : 23.976 fps
Resolution                       : 8 bits
Colorimetry                      : 4:2:0
Scan type                        : Progressive
Bits/(Pixel*Frame)               : 0.182
Stream size                      : 607 MiB (87%)
Writing library                  : XviD 1.2.1 (UTC 2008-12-04)

Audio
ID                               : 1
Format                           : MPEG Audio
Format version                   : Version 1
Format profile                   : Layer 3
Mode                             : Joint stereo
Format_Settings_ModeExtension    : MS Stereo
Codec ID                         : 55
Codec ID/Hint                    : MP3
Duration                         : 1h 29mn
Bit rate mode                    : Variable
Bit rate                         : 128 Kbps
Channel(s)                       : 2 channels
Sampling rate                    : 48.0 KHz
Stream size                      : 81.7 MiB (12%)
Alignment                        : Aligned on interleaves
Interleave, duration             : 24 ms (0.58 video frame)
Interleave, preload duration     : 227 ms
Writing library                  : LAME3.90.
Encoding settings                : -m j -V 4 -q 2 -lowpass 17.6 --abr 128




Release notes:
enjoy!


                                                                     
                                                             
                                                               
                                                               
                       
      
              Greetz from Team FiCO:               
              
                                                             
                                                             
           BLooDWeiSeR,CULTXviD,SiCK,DoNE,LAP,TH30R1STS              
                                                                             
               WinBeta, DvF, WASTE, BERC, KALEVALA, Jiggly                   
                                                                             
                                                             
                                       
                             
                      
                  
           
            
                    
                  
                
                            
                                        
                                        
                                            
                                                    
                                                              
                      you know where to find us...                     
                        
   NFO By: CoaXCable/CoolPHat <#CPH>